<?xml version="1.0" encoding="UTF-8"?>
<svg width="1200" height="630" xmlns="http://www.w3.org/2000/svg">
  <!-- Dark theme background -->
  <rect width="1200" height="630" fill="#0F172A" />
  <!-- Omnis logo left -->
  <g transform="translate(60,115) scale(4)">
    <defs>
      <linearGradient id="logoGrad" x1="15" y1="15" x2="85" y2="85" gradientUnits="userSpaceOnUse">
        <stop stop-color="#3B82F6"/>
        <stop offset="1" stop-color="#10B981"/>
      </linearGradient>
    </defs>
    <circle cx="50" cy="50" r="45" fill="url(#logoGrad)" />
    <circle cx="50" cy="50" r="35" fill="#141834" fill-opacity="0.8" />
    <path d="M50 26C37.2975 26 27 36.2975 27 49C27 61.7025 37.2975 72 50 72C62.7025 72 73 61.7025 73 49C73 36.2975 62.7025 26 50 26ZM50 65C41.1634 65 34 57.8366 34 49C34 40.1634 41.1634 33 50 33C58.8366 33 66 40.1634 66 49C66 57.8366 58.8366 65 50 65Z" fill="white" />
  </g>
  <!-- Gradient text style -->
  <defs>
    <linearGradient id="textGrad" x1="0" y1="0" x2="1" y2="0">
      <stop offset="0%" stop-color="#3B82F6"/>
      <stop offset="100%" stop-color="#10B981"/>
    </linearGradient>
  </defs>
  <!-- Main Title -->
  <text x="520" y="280" font-family="Arial, sans-serif" font-size="64" font-weight="bold" fill="url(#textGrad)">
    OMNIS
  </text>
  <text x="520" y="350" font-family="Arial, sans-serif" font-size="32" fill="#E2E8F0">
    Arweave Name System (ArNS) Explorer
  </text>
</svg>
